<?xml version="1.0" encoding="utf-8"?>
<!-- Generator: Adobe Illustrator 27.2.0, SVG Export Plug-In . SVG Version: 6.00 Build 0)  -->
<svg version="1.1" id="Layer_1" xmlns="http://www.w3.org/2000/svg" xmlns:xlink="http://www.w3.org/1999/xlink" x="0px" y="0px"
	 viewBox="0 0 700 700" style="enable-background:new 0 0 700 700;" xml:space="preserve">
<style type="text/css">
	.st0{fill-rule:evenodd;clip-rule:evenodd;fill:#FFFFFF;}
</style>
<g>
	<path class="st0" d="M495.3,309.5c46.3,21.1,75.8,65.3,75.8,117.9C571,501,512.1,560,438.4,560c-33.7,0-65.3-12.6-88.4-33.7
		c-23.2,21.1-54.7,33.7-90.5,33.7c-71.6,0-132.6-58.9-132.6-132.6c0-52.6,31.6-96.8,77.9-117.9c8.4-73.7,69.5-130.5,145.3-130.5
		C425.8,178.9,486.8,235.8,495.3,309.5L495.3,309.5z"/>
	<path class="st0" d="M255.3,0c33.7,0,61.1,33.7,61.1,73.7c0,42.1-27.4,75.8-61.1,75.8s-61.1-33.7-61.1-75.8
		C194.2,33.7,221.6,0,255.3,0L255.3,0z"/>
	<path class="st0" d="M444.7,0c33.7,0,61.1,33.7,61.1,73.7c0,42.1-27.4,75.8-61.1,75.8s-61.1-33.7-61.1-75.8
		C383.7,33.7,411.1,0,444.7,0z"/>
	<path class="st0" d="M600.5,160c29.5,8.4,44.2,46.3,33.7,82.1s-44.2,58.9-73.7,50.5c-29.5-8.4-46.3-46.3-33.7-82.1
		C537.4,172.6,571.1,151.6,600.5,160z"/>
	<path class="st0" d="M99.5,160c-29.5,8.4-46.3,46.3-33.7,82.1c10.5,35.8,44.2,58.9,73.7,50.5c29.5-8.4,44.2-46.3,33.7-82.1
		C162.6,172.6,128.9,151.6,99.5,160L99.5,160z"/>
</g>
</svg>
