<?xml version="1.0" encoding="utf-8"?>
<!-- Generator: Adobe Illustrator 27.2.0, SVG Export Plug-In . SVG Version: 6.00 Build 0)  -->
<svg version="1.1" id="Layer_1" xmlns="http://www.w3.org/2000/svg" xmlns:xlink="http://www.w3.org/1999/xlink" x="0px" y="0px"
	 viewBox="0 0 700 700" style="enable-background:new 0 0 700 700;" xml:space="preserve">
<style type="text/css">
	.st0{fill:#FFFFFF;}
</style>
<g>
	<path class="st0" d="M255.8,100.8c1.4,0.9,2.9,1.3,4.4,1.3c2.8,0,5.6-1.4,7.2-4c0-0.1,4.4-6.8,15.3-4.4c2.8,0.6,5.8-0.3,7.8-2.3
		c2-2.1,2.9-5,2.2-7.8c0-0.1-3-13.9,4-20.9c3.3-3.3,3.3-8.6,0-11.9c-3.3-3.3-8.6-3.3-11.9,0c-7.7,7.7-9.5,18-9.6,25.7
		c-11.6,1-19.1,7.9-22.1,12.7C250.6,93.2,251.8,98.4,255.8,100.8L255.8,100.8z"/>
	<path class="st0" d="M314.5,97.1c1.4,0.9,3,1.3,4.5,1.3c2.7,0,5.4-1.3,7-3.7c0.5-0.8,3.6-4.6,10.8-3c2.8,0.6,5.8-0.2,7.8-2.3
		c2-2.1,2.9-5,2.2-7.9c0-0.1-2.2-10.4,2.9-15.4c3.3-3.3,3.3-8.6,0-11.9c-3.3-3.3-8.6-3.3-11.9,0c-6.2,6.2-7.9,14.2-8.2,20.5
		c-9.2,1.3-15.3,6.9-17.8,10.9C309.5,89.6,310.7,94.6,314.5,97.1L314.5,97.1z"/>
	<path class="st0" d="M582.4,481.6h-59.7v-98c34.4-4.2,61.2-33.5,61.2-69.1c0-17-6.3-33.4-17.5-46.1c5.5-9.3,8.4-19.8,8.4-30.7
		c0-14.8-5.5-29.1-15.3-40.1c2.9-6.4,4.3-13.2,4.3-20.2c0-27.3-22.2-49.5-49.5-49.5c-27.3,0-49.5,22.2-49.5,49.5
		c0,7,1.5,13.8,4.3,20.2c-9.8,11-15.3,25.3-15.3,40.1c0,10.9,2.9,21.4,8.4,30.7c-11.2,12.7-17.5,29.1-17.5,46.1
		c0,35.6,26.8,64.9,61.3,69.1v98h-82.4v-24.3h7.5c4.6,0,8.4-3.8,8.4-8.4c0-4.6-3.8-8.4-8.4-8.4l-178.1,0c-4.6,0-8.4,3.8-8.4,8.4
		c0,4.6,3.8,8.4,8.4,8.4h7.5v24.3h-73.8v-98c34.4-4.2,61.2-33.5,61.2-69.1c0-17-6.3-33.4-17.5-46.1c5.5-9.3,8.4-19.8,8.4-30.7
		c0-14.8-5.5-29.1-15.3-40.1c2.9-6.4,4.3-13.2,4.3-20.2c0-27.3-22.2-49.5-49.5-49.5c-27.3,0-49.5,22.2-49.5,49.5
		c0,7,1.5,13.8,4.3,20.2c-9.8,11-15.3,25.3-15.3,40.1c0,10.9,2.9,21.4,8.4,30.7c-11.2,12.7-17.5,29.1-17.5,46.1
		c0,35.6,26.8,64.9,61.2,69.1v98h-56.9c-4.6,0-8.4,3.8-8.4,8.4s3.8,8.4,8.4,8.4h469.5c4.6,0,8.4-3.8,8.4-8.4
		C590.8,485.4,587,481.6,582.4,481.6L582.4,481.6z M178.3,196.4c-4.6,0-8.4,3.8-8.4,8.4v36.9l-8.4-12.3c-2.6-3.8-7.9-4.8-11.7-2.2
		c-3.8,2.6-4.8,7.9-2.2,11.7l22.3,32.5v31.9l-10-8.3c-3.6-3-8.9-2.5-11.8,1.1c-3,3.6-2.5,8.9,1.1,11.8l20.7,17.1v41.5
		c-25.1-4-44.4-25.8-44.4-52.1c0-14.7,6.3-28.9,17.2-38.9c3.2-2.9,3.6-7.9,1-11.3c-5.9-7.7-9.1-16.9-9.1-26.6
		c0-12.3,5.3-24.1,14.4-32.4c3-2.7,3.6-7.2,1.5-10.7c-3.3-5.2-5-11.2-5-17.3c0-18,14.7-32.7,32.7-32.7s32.7,14.7,32.7,32.7
		c0,6.1-1.7,12.1-5,17.3c-2.2,3.4-1.5,7.9,1.5,10.7c9.2,8.3,14.4,20.1,14.4,32.4c0,9.6-3.1,18.8-9.1,26.6c-2.7,3.5-2.2,8.4,1,11.3
		c10.9,10,17.2,24.2,17.2,38.9c0,26.3-19.3,48.1-44.4,52.1l0-67.7l18.1-25.2c2.7-3.8,1.8-9-1.9-11.7c-3.8-2.7-9-1.8-11.7,1.9
		l-4.4,6.2v-1.3v0l0-63.9C186.7,200.2,182.9,196.4,178.3,196.4L178.3,196.4z M406.6,481.6H277.2v-24.3h129.4V481.6z M514.3,196.4
		c-4.6,0-8.4,3.8-8.4,8.4v36.9l-8.4-12.3c-2.6-3.8-7.9-4.8-11.7-2.2c-3.8,2.6-4.8,7.9-2.2,11.7l22.3,32.5v31.9l-10-8.3
		c-3.6-3-8.9-2.4-11.8,1.1c-3,3.6-2.5,8.9,1.1,11.8l20.7,17.1v41.5c-25.2-4-44.5-25.8-44.5-52.1c0-14.7,6.3-28.9,17.2-38.9
		c3.2-2.9,3.6-7.9,1-11.3c-5.9-7.7-9.1-16.9-9.1-26.6c0-12.3,5.3-24.1,14.4-32.4c3-2.7,3.6-7.2,1.5-10.7c-3.3-5.2-5-11.2-5-17.3
		c0-18,14.7-32.7,32.7-32.7c18,0,32.7,14.7,32.7,32.7c0,6.1-1.7,12.1-5,17.3c-2.2,3.4-1.5,7.9,1.5,10.7c9.2,8.3,14.4,20.1,14.4,32.4
		c0,9.6-3.1,18.8-9.1,26.6c-2.6,3.5-2.2,8.4,1,11.3c10.9,10,17.2,24.2,17.2,38.9c0,26.3-19.3,48.1-44.4,52.1v-67.7l18.1-25.2
		c2.7-3.8,1.8-9-1.9-11.7c-3.8-2.7-9-1.8-11.7,1.9l-4.4,6.2v-1.3v0v-63.9C522.7,200.2,518.9,196.4,514.3,196.4L514.3,196.4z"/>
	<path class="st0" d="M244.5,373.9c0,4.6,3.8,8.4,8.4,8.4H431c4.6,0,8.4-3.8,8.4-8.4c0-4.6-3.8-8.4-8.4-8.4l-178.1,0
		C248.2,365.5,244.5,369.3,244.5,373.9L244.5,373.9z"/>
	<path class="st0" d="M431,403H252.9c-4.6,0-8.4,3.8-8.4,8.4s3.8,8.4,8.4,8.4H431c4.6,0,8.4-3.8,8.4-8.4S435.6,403,431,403L431,403z
		"/>
</g>
</svg>
