<?xml version="1.0" encoding="utf-8"?>
<!-- Generator: Adobe Illustrator 27.2.0, SVG Export Plug-In . SVG Version: 6.00 Build 0)  -->
<svg version="1.1" id="Layer_1" xmlns="http://www.w3.org/2000/svg" xmlns:xlink="http://www.w3.org/1999/xlink" x="0px" y="0px"
	 viewBox="0 0 700 700" style="enable-background:new 0 0 700 700;" xml:space="preserve">
<style type="text/css">
	.st0{fill:none;}
	.st1{fill:#FFFFFF;}
</style>
<g>
	<path class="st0" d="M326.7,260.1c-8,0-14.5,6.5-14.5,14.5s6.5,14.5,14.5,14.5c8,0,14.5-6.5,14.5-14.5
		C341.2,266.6,334.7,260.1,326.7,260.1z"/>
	<path class="st0" d="M386.8,260.1c-8,0-14.5,6.5-14.5,14.5s6.5,14.5,14.5,14.5c8,0,14.5-6.5,14.5-14.5
		C401.3,266.6,394.8,260.1,386.8,260.1z"/>
	<path class="st0" d="M452.9,143.9c-6.7-3.1-14.2-2-19.8,2.8L379.4,193h-45.3l-53.6-46.4c-5.5-4.8-13.2-5.9-19.8-2.8
		c-6.7,3.1-10.8,9.5-10.8,16.8c0.1,24.2,0.1,48.5,0.1,72.6c0,36.2,0,72.4,0,108.6v21.7c0,29.3,23.8,53.1,53.1,53.1h25.8v10.7
		c0,9.7,8.5,17.7,19,17.7h18c10.5,0,19-7.9,19-17.7v-10.7h25.8c29.3,0,53.1-23.8,53.1-53.1l0.1-202.9
		C463.6,153.4,459.5,146.9,452.9,143.9L452.9,143.9z M373.3,427.4c0,3.4-3.5,6.3-7.6,6.3h-18c-4.2,0-7.6-2.8-7.6-6.3v-57.7
		c4-0.7,7.7-2.2,10.9-4.5v30.4c0,3.1,2.5,5.7,5.7,5.7c3.1,0,5.7-2.5,5.7-5.7v-30.5c3.2,2.3,6.9,3.8,10.9,4.5V427.4L373.3,427.4z
		 M448.4,363.6c0,20.9-17,37.9-37.9,37.9h-25.8v-32.2c11.4-2.9,19.8-13.2,19.8-25.5c0-3.1-2.5-5.7-5.7-5.7c-3.1,0-5.7,2.5-5.7,5.7
		c0,8.2-6.7,15-15,15h-0.4c-8.2,0-15-6.7-15-15v-12.9c1.9-0.8,3.5-2.1,4.6-3.7l12.1-16.6c2-2.8,2.3-6.1,0.8-9.1
		c-1.9-3.8-6.4-6.3-11.4-6.3l-24.1-0.1c-5-0.2-9.5,2.5-11.5,6.3c-1.5,3-1.3,6.3,0.8,9.1l12,16.7c1.1,1.6,2.8,2.9,4.7,3.7v12.8
		c0,8.2-6.7,15-15,15h-0.4c-8.2,0-15-6.7-15-15c0-3.1-2.5-5.7-5.7-5.7c-3.1,0-5.7,2.5-5.7,5.7c0,12.3,8.4,22.5,19.8,25.5v32.2h-25.8
		c-20.9,0-37.9-17-37.9-37.9v-21.7c0-36.2,0-72.4,0-108.6c0-24.2-0.1-48.5-0.1-72.7c0-1.9,1.2-2.7,1.9-3.1c0.7-0.3,2.2-0.7,3.5,0.5
		l57.9,50h56.6l57.9-50c1.4-1.2,2.8-0.8,3.5-0.5c0.7,0.4,1.9,1.1,1.9,3.1L448.4,363.6z"/>
</g>
<path class="st1" d="M572.4,214.1v-0.1v-0.2c-1.2-28.8-23.2-52.4-52.3-55.2l-142-13.6c-16.2-1.6-32.4,3.8-44.4,14.8
	c-12.1,10.9-19,26.5-19,42.9v57.2l-71.8,159.8c-8.3,16-11.5,33.6-9.6,50.8c-34.9-25.6-56.1-66.8-56.1-110.3
	c0-14.8-12.1-26.8-26.8-26.8s-26.8,12.1-26.8,26.8c0,105,85.4,190.4,190.4,190.4c0.6,0,1.1-0.1,1.6-0.3c2.2,0.2,4.5,0.3,6.8,0.3
	h205.5c3.2,0,5.9-2.6,5.9-5.9v-12.4c0-37.7-29-68.8-65.8-72l0-180.4l52.2-5c29.9-2.8,52.4-27.7,52.4-57.6v-0.9
	C572.5,215.5,572.4,214.8,572.4,214.1L572.4,214.1z M543.4,180.2c10.3,8.3,16.7,20.8,17.3,34v4.8c-0.5,11.3-4.9,21.9-12.6,30
	c-13.4-6.9-21.8-20.5-21.8-35.8C526.2,200.1,532.7,187.7,543.4,180.2L543.4,180.2z M135.2,360.1c0-8.3,6.8-15.1,15.1-15.1
	s15.1,6.8,15.1,15.1c0,51.4,27.2,99.8,71.2,126.7c2.2,7.1,5.2,14,9.2,20.5c6.2,10.2,14.1,18.8,23.2,25.6
	C192.2,513.1,135.2,443.2,135.2,360.1L135.2,360.1z M456.2,459.8H382c-3.2,0-5.9,2.6-5.9,5.9s2.6,5.9,5.9,5.9h79.3h0.2h0.5h0.1
	c33.1,0.4,59.9,27.4,59.9,60.6v6.6l-199.7,0c-27.5,0-52.3-14-66.5-37.5c-3.8-6.3-6.6-12.8-8.5-19.6c0-0.1-0.1-0.1-0.1-0.2
	c-5.1-18.6-3.2-38.7,6.1-56.5c0.1-0.1,0.1-0.2,0.1-0.3l61.2-136.1v11.6c0,28.4,23.1,51.6,51.6,51.6h0.9c28.4,0,51.6-23.1,51.6-51.6
	v-15.7l37.5-3.6L456.2,459.8z M519,263.1l-100.3,9.5v-53c0-3.2-2.6-5.9-5.9-5.9s-5.9,2.6-5.9,5.9v80.5c0,21.9-17.8,39.8-39.8,39.8
	h-0.9c-21.9,0-39.8-17.8-39.8-39.8l0-80.4v-17.1c0-13,5.5-25.4,15.1-34.2c9.6-8.8,22.5-13,35.4-11.8l142,13.6
	c4.8,0.5,9.4,1.6,13.7,3.5c-11.4,9.8-18.2,24.2-18.2,39.4c0,17.9,9.1,34.2,23.8,43.7C532.5,260.2,526,262.5,519,263.1L519,263.1z"/>
</svg>
