<?xml version="1.0" encoding="utf-8"?>
<!-- Generator: Adobe Illustrator 27.2.0, SVG Export Plug-In . SVG Version: 6.00 Build 0)  -->
<svg version="1.1" id="Layer_1" xmlns="http://www.w3.org/2000/svg" xmlns:xlink="http://www.w3.org/1999/xlink" x="0px" y="0px"
	 viewBox="0 0 700 700" style="enable-background:new 0 0 700 700;" xml:space="preserve">
<style type="text/css">
	.st0{fill:#FFFFFF;}
</style>
<g>
	<path class="st0" d="M396.7,98.4c0,25.8-20.9,46.7-46.7,46.7s-46.7-20.9-46.7-46.7s20.9-46.7,46.7-46.7S396.7,72.6,396.7,98.4"/>
	<path class="st0" d="M350,157.6c-39.9,0-72.3,32.5-72.3,72.3v264.5c0,7.7,6.3,14,14,14s14-6.3,14-14V229.9
		c0-24.4,19.9-44.3,44.3-44.3s44.3,19.9,44.3,44.3v264.5c0,7.7,6.3,14,14,14s14-6.3,14-14V229.9C422.3,190,389.9,157.6,350,157.6
		L350,157.6z"/>
</g>
</svg>
